<?xml version="1.0" encoding="UTF-8" standalone="no"?>
<!DOCTYPE svg PUBLIC "-//W3C//DTD SVG 1.1//EN" "http://www.w3.org/Graphics/SVG/1.1/DTD/svg11.dtd">
<svg version="1.1" xmlns="http://www.w3.org/2000/svg" xmlns:xlink="http://www.w3.org/1999/xlink" preserveAspectRatio="xMidYMid meet" viewBox="0 0 236 236" width="236" height="236"><defs><path d="M236 118C236 183.13 183.13 236 118 236C52.87 236 0 183.13 0 118C0 52.87 52.87 0 118 0C183.13 0 236 52.87 236 118Z" id="d1KUysswMG"></path><path d="M208.36 70.68C205 70.68 178.17 70.68 174.82 70.68C162.72 70.68 152.9 80.53 152.9 92.63C152.9 104.82 162.47 114.39 174.66 114.39C191.94 114.39 206.02 128.4 206.02 145.59C206.02 162.87 191.94 176.95 174.66 176.95C171.26 176.95 144.1 176.95 140.71 176.95C140 176.37 139.14 176.05 138.18 176.05C137 176.05 135.94 176.56 135.2 177.36C134.56 178.07 134.18 179 134.18 180.02C134.18 181.04 134.56 181.94 135.17 182.64C135.91 183.48 136.96 183.99 138.15 183.99C139.52 183.99 140.74 183.28 141.44 182.23C144.77 182.23 171.37 182.23 174.69 182.23C194.88 182.23 211.33 165.78 211.33 145.59C211.33 125.46 194.88 109.11 174.69 109.11C165.6 109.11 158.21 101.72 158.21 92.63C158.21 83.44 165.7 75.96 174.85 75.96C178.2 75.96 205.01 75.96 208.36 75.96C209.09 76.79 210.15 77.3 211.33 77.3C213.54 77.3 215.3 75.54 215.3 73.33C215.3 71.16 213.54 69.36 211.33 69.36C210.15 69.36 209.09 69.88 208.36 70.68ZM138.21 178.48C138.21 178.48 138.21 178.48 138.21 178.48C139.08 178.48 139.75 179.19 139.75 180.05C139.75 180.92 139.04 181.59 138.21 181.59C138.21 181.59 138.21 181.59 138.21 181.59C137.35 181.59 136.68 180.88 136.68 180.05C136.68 179.19 137.35 178.52 138.21 178.48ZM209.76 73.36C209.76 72.5 210.47 71.8 211.33 71.8C212.2 71.8 212.87 72.5 212.87 73.36C212.9 74.2 212.2 74.9 211.33 74.9C210.47 74.9 209.76 74.2 209.76 73.36Z" id="a12hjNnk5c"></path><path d="M141.22 167.54C144.57 167.54 171.34 167.54 174.69 167.54C186.79 167.54 196.61 157.72 196.61 145.62C196.61 133.81 186.85 124.02 174.85 123.86C157.54 123.86 143.49 109.88 143.49 92.66C143.49 75.35 157.57 61.3 174.85 61.3C178.24 61.3 205.32 61.3 208.71 61.3C209.41 61.91 210.31 62.29 211.33 62.29C213.54 62.29 215.3 60.5 215.3 58.32C215.3 56.12 213.51 54.36 211.33 54.36C209.99 54.36 208.84 55.03 208.1 56.02C204.78 56.02 178.18 56.02 174.85 56.02C154.66 56.02 138.21 72.47 138.21 92.66C138.21 112.79 154.66 129.14 174.82 129.14C183.94 129.3 191.33 136.69 191.33 145.62C191.33 154.8 183.88 162.26 174.69 162.26C171.33 162.26 144.45 162.26 141.09 162.26C140.36 161.49 139.33 160.98 138.21 160.98C136 160.98 134.24 162.77 134.24 164.95C134.24 167.12 136 168.95 138.21 168.95C139.43 168.95 140.52 168.4 141.22 167.54Z" id="aRiNFTtOn"></path><path d="M124.64 176.98C115 176.98 37.81 176.98 28.16 176.98C27.46 176.28 26.47 175.86 25.41 175.86C24.26 175.86 23.24 176.34 22.5 177.11C22.47 177.14 22.44 177.17 22.4 177.2C21.8 177.91 21.41 178.8 21.41 179.83C21.41 180.82 21.76 181.72 22.37 182.39C22.4 182.42 22.44 182.45 22.44 182.48C23.17 183.28 24.23 183.8 25.41 183.8C26.37 183.8 27.24 183.44 27.94 182.9C27.97 182.87 28 182.84 28.04 182.8C28.23 182.64 28.39 182.45 28.55 182.26C38.08 182.26 114.31 182.26 123.84 182.26C124.55 183.32 125.76 184.02 127.14 184.02C129.35 184.02 131.11 182.23 131.11 180.05C131.11 177.84 129.35 176.05 127.14 176.05C126.18 176.05 125.32 176.4 124.64 176.98ZM25.19 178.29C25.25 178.26 25.32 178.26 25.38 178.26C25.38 178.26 25.38 178.26 25.38 178.26C26.24 178.26 26.92 178.96 26.92 179.8C26.92 180.66 26.21 181.36 25.38 181.36C25.38 181.36 25.38 181.36 25.38 181.36C25.22 181.36 25.06 181.33 24.93 181.3C24.42 181.14 24 180.69 23.91 180.15C23.88 180.05 23.84 179.92 23.84 179.8C23.84 179.12 24.29 178.55 24.93 178.36C25.03 178.32 25.09 178.29 25.19 178.29Z" id="a1jmkL5og"></path><path d="M124.23 162.23C119.89 162.23 98.22 162.23 59.2 162.23C99.1 101.21 121.27 67.31 125.7 60.53C127.43 60.08 128.71 58.55 128.71 56.69C128.71 56.47 128.68 56.28 128.64 56.05C128.65 56.05 128.67 56.01 128.71 55.96C128.67 55.96 128.65 55.96 128.64 55.96C128.29 54.1 126.69 52.72 124.74 52.72C122.53 52.72 120.77 54.52 120.77 56.69C120.77 57.11 120.87 57.52 120.96 57.91C114.25 68.25 60.54 150.99 53.83 161.33C53.35 161.56 52.9 161.88 52.55 162.23C51.82 162.23 48.21 162.23 41.7 162.23L110.85 55.96C61.82 55.96 34.57 55.96 29.12 55.96C28.42 54.93 27.24 54.26 25.89 54.26C24.74 54.26 23.72 54.74 22.98 55.51C22.95 55.54 22.92 55.57 22.88 55.6C22.28 56.31 21.89 57.2 21.89 58.23C21.89 59.22 22.24 60.12 22.85 60.79C22.88 60.82 22.92 60.85 22.92 60.88C23.65 61.68 24.71 62.2 25.89 62.2C26.85 62.2 27.72 61.84 28.42 61.3C28.45 61.27 28.48 61.24 28.52 61.2C33.37 61.2 57.66 61.2 101.38 61.2L95.27 70.64C55.39 70.64 33.24 70.64 28.8 70.64C28.07 69.84 27.04 69.3 25.86 69.3C23.65 69.3 21.89 71.09 21.89 73.27C21.89 75.44 23.68 77.24 25.86 77.24C27.04 77.24 28.1 76.72 28.84 75.89C33.04 75.89 54.05 75.89 91.88 75.89C58.43 127.12 39.85 155.58 36.13 161.27C35.68 161.11 35.24 161.01 34.72 161.01C32.52 161.01 30.76 162.8 30.76 164.98C30.76 167.16 32.55 168.95 34.72 168.95C35.94 168.95 37.03 168.4 37.73 167.54C39.2 167.54 50.92 167.54 52.39 167.54C52.42 167.57 52.45 167.6 52.45 167.64C53.19 168.44 54.24 168.95 55.43 168.95C56.39 168.95 57.25 168.6 57.96 168.05C58.15 167.89 58.31 167.73 58.44 167.54C65.01 167.54 117.56 167.54 124.13 167.54C124.16 167.57 124.2 167.6 124.2 167.64C124.93 168.44 125.99 168.95 127.17 168.95C128.13 168.95 129 168.6 129.7 168.05C130.6 167.32 131.14 166.23 131.14 164.98C131.14 164.15 130.88 163.41 130.47 162.77C129.73 161.68 128.55 160.98 127.14 160.98C125.99 160.98 124.96 161.46 124.23 162.23ZM25.41 56.79C25.57 56.72 25.7 56.69 25.86 56.69C25.86 56.69 25.86 56.69 25.86 56.69C26.72 56.69 27.4 57.4 27.4 58.23C27.4 59.09 26.69 59.8 25.86 59.8C25.86 59.8 25.86 59.8 25.86 59.8C25.7 59.8 25.54 59.76 25.41 59.73C24.77 59.54 24.32 58.96 24.32 58.26C24.32 57.56 24.77 56.98 25.41 56.79ZM55.43 166.52C55.43 166.52 55.43 166.52 55.43 166.52C54.56 166.52 53.89 165.81 53.89 164.95C53.89 164.08 54.56 163.41 55.43 163.41C55.43 163.41 55.43 163.41 55.43 163.41C56.29 163.41 57 164.12 57 164.95C57 165.81 56.29 166.52 55.43 166.52ZM127.14 166.52C126.28 166.52 125.57 165.81 125.57 164.95C125.57 164.08 126.24 163.41 127.11 163.41C127.11 163.41 127.11 163.41 127.11 163.41C127.97 163.41 128.64 164.12 128.64 164.95C128.71 165.81 128 166.52 127.14 166.52C127.14 166.52 127.14 166.52 127.14 166.52Z" id="b1TuL1CDs"></path></defs><g><g><g><use xlink:href="#d1KUysswMG" opacity="1" fill="#dbdbdb" fill-opacity="1"></use></g><g><use xlink:href="#a12hjNnk5c" opacity="1" fill="#2c3e50" fill-opacity="1"></use><g><use xlink:href="#a12hjNnk5c" opacity="1" fill-opacity="0" stroke="#000000" stroke-width="1" stroke-opacity="0"></use></g></g><g><use xlink:href="#aRiNFTtOn" opacity="1" fill="#2c3e50" fill-opacity="1"></use><g><use xlink:href="#aRiNFTtOn" opacity="1" fill-opacity="0" stroke="#000000" stroke-width="1" stroke-opacity="0"></use></g></g><g><use xlink:href="#a1jmkL5og" opacity="1" fill="#660018" fill-opacity="1"></use><g><use xlink:href="#a1jmkL5og" opacity="1" fill-opacity="0" stroke="#000000" stroke-width="1" stroke-opacity="0"></use></g></g><g><use xlink:href="#b1TuL1CDs" opacity="1" fill="#660018" fill-opacity="1"></use><g><use xlink:href="#b1TuL1CDs" opacity="1" fill-opacity="0" stroke="#000000" stroke-width="1" stroke-opacity="0"></use></g></g></g></g></svg>